# Goxel 0.10.8
v -4 0 0 0.258824 1.000000 0.000000
v -3 0 0 0.258824 1.000000 0.000000
v -3 0 1 0.258824 1.000000 0.000000
v -4 0 1 0.258824 1.000000 0.000000
v -4 1 0 0.258824 1.000000 0.000000
v -3 1 0 0.258824 1.000000 0.000000
v -3 1 1 0.258824 1.000000 0.000000
v -4 1 1 0.258824 1.000000 0.000000
v -2 1 0 0.258824 1.000000 0.000000
v -2 0 0 0.258824 1.000000 0.000000
v -2 0 1 0.258824 1.000000 0.000000
v -2 1 1 0.258824 1.000000 0.000000
v -1 0 0 0.258824 1.000000 0.000000
v -1 1 0 0.258824 1.000000 0.000000
v 0 1 0 0.258824 1.000000 0.000000
v 0 0 0 0.258824 1.000000 0.000000
v 0 0 1 0.258824 1.000000 0.000000
v 0 1 1 0.258824 1.000000 0.000000
v -1 1 1 0.258824 1.000000 0.000000
v -1 0 1 0.258824 1.000000 0.000000
v -5 1 0 0.258824 1.000000 0.000000
v -5 1 1 0.258824 1.000000 0.000000
v -5 2 0 0.258824 1.000000 0.000000
v -4 2 0 0.258824 1.000000 0.000000
v -4 2 1 0.258824 1.000000 0.000000
v -5 2 1 0.258824 1.000000 0.000000
v -3 2 0 0.258824 1.000000 0.000000
v -3 2 1 0.258824 1.000000 0.000000
v -2 2 0 0.258824 1.000000 0.000000
v -2 2 1 0.258824 1.000000 0.000000
v -1 2 0 0.258824 1.000000 0.000000
v -1 2 1 0.258824 1.000000 0.000000
v 0 2 0 0.258824 1.000000 0.000000
v 0 2 1 0.258824 1.000000 0.000000
v -5 3 0 0.258824 1.000000 0.000000
v -4 3 0 0.258824 1.000000 0.000000
v -4 3 1 0.258824 1.000000 0.000000
v -5 3 1 0.258824 1.000000 0.000000
v -3 3 0 0.258824 1.000000 0.000000
v -2 3 0 0.258824 1.000000 0.000000
v -2 3 1 0.258824 1.000000 0.000000
v -3 3 1 0.258824 1.000000 0.000000
v -1 3 0 0.258824 1.000000 0.000000
v -1 3 1 0.258824 1.000000 0.000000
v 0 3 0 0.258824 1.000000 0.000000
v 0 3 1 0.258824 1.000000 0.000000
v -4 4 0 0.258824 1.000000 0.000000
v -5 4 0 0.258824 1.000000 0.000000
v -5 4 1 0.258824 1.000000 0.000000
v -4 4 1 0.258824 1.000000 0.000000
v -2 4 0 0.258824 1.000000 0.000000
v -3 4 0 0.258824 1.000000 0.000000
v -3 4 1 0.258824 1.000000 0.000000
v -2 4 1 0.258824 1.000000 0.000000
v -1 4 0 0.258824 1.000000 0.000000
v -1 4 1 0.258824 1.000000 0.000000
v -1 5 0 0.258824 1.000000 0.000000
v -2 5 0 0.258824 1.000000 0.000000
v -2 5 1 0.258824 1.000000 0.000000
v -1 5 1 0.258824 1.000000 0.000000
v 0 4 0 0.258824 1.000000 0.000000
v 0 4 1 0.258824 1.000000 0.000000
v 0 5 0 0.258824 1.000000 0.000000
v 0 5 1 0.258824 1.000000 0.000000
v 1 1 0 0.258824 1.000000 0.000000
v 1 0 0 0.258824 1.000000 0.000000
v 1 0 1 0.258824 1.000000 0.000000
v 1 1 1 0.258824 1.000000 0.000000
v 2 1 0 0.258824 1.000000 0.000000
v 2 0 0 0.258824 1.000000 0.000000
v 2 0 1 0.258824 1.000000 0.000000
v 2 1 1 0.258824 1.000000 0.000000
v 3 0 0 0.258824 1.000000 0.000000
v 3 1 0 0.258824 1.000000 0.000000
v 4 1 0 0.258824 1.000000 0.000000
v 4 0 0 0.258824 1.000000 0.000000
v 4 0 1 0.258824 1.000000 0.000000
v 4 1 1 0.258824 1.000000 0.000000
v 3 1 1 0.258824 1.000000 0.000000
v 3 0 1 0.258824 1.000000 0.000000
v 5 0 0 0.258824 1.000000 0.000000
v 5 0 1 0.258824 1.000000 0.000000
v 5 1 0 0.258824 1.000000 0.000000
v 5 1 1 0.258824 1.000000 0.000000
v 1 2 0 0.258824 1.000000 0.000000
v 1 2 1 0.258824 1.000000 0.000000
v 2 2 0 0.258824 1.000000 0.000000
v 2 2 1 0.258824 1.000000 0.000000
v 3 2 0 0.258824 1.000000 0.000000
v 3 2 1 0.258824 1.000000 0.000000
v 4 2 0 0.258824 1.000000 0.000000
v 4 2 1 0.258824 1.000000 0.000000
v 5 2 0 0.258824 1.000000 0.000000
v 5 2 1 0.258824 1.000000 0.000000
v 6 1 0 0.258824 1.000000 0.000000
v 6 1 1 0.258824 1.000000 0.000000
v 6 2 0 0.258824 1.000000 0.000000
v 6 2 1 0.258824 1.000000 0.000000
v 1 3 0 0.258824 1.000000 0.000000
v 1 3 1 0.258824 1.000000 0.000000
v 2 3 0 0.258824 1.000000 0.000000
v 2 3 1 0.258824 1.000000 0.000000
v 3 3 0 0.258824 1.000000 0.000000
v 3 3 1 0.258824 1.000000 0.000000
v 4 3 0 0.258824 1.000000 0.000000
v 4 3 1 0.258824 1.000000 0.000000
v 5 3 0 0.258824 1.000000 0.000000
v 6 3 0 0.258824 1.000000 0.000000
v 6 3 1 0.258824 1.000000 0.000000
v 5 3 1 0.258824 1.000000 0.000000
v 4 4 0 0.258824 1.000000 0.000000
v 3 4 0 0.258824 1.000000 0.000000
v 3 4 1 0.258824 1.000000 0.000000
v 4 4 1 0.258824 1.000000 0.000000
v 6 4 0 0.258824 1.000000 0.000000
v 5 4 0 0.258824 1.000000 0.000000
v 5 4 1 0.258824 1.000000 0.000000
v 6 4 1 0.258824 1.000000 0.000000
v 1 4 0 0.258824 1.000000 0.000000
v 2 4 0 0.258824 1.000000 0.000000
v 2 4 1 0.258824 1.000000 0.000000
v 1 4 1 0.258824 1.000000 0.000000
v 2 5 0 0.258824 1.000000 0.000000
v 1 5 0 0.258824 1.000000 0.000000
v 1 5 1 0.258824 1.000000 0.000000
v 2 5 1 0.258824 1.000000 0.000000
v 3 5 0 0.258824 1.000000 0.000000
v 3 5 1 0.258824 1.000000 0.000000
v -3 -3 0 0.258824 1.000000 0.000000
v -2 -3 0 0.258824 1.000000 0.000000
v -2 -3 1 0.258824 1.000000 0.000000
v -3 -3 1 0.258824 1.000000 0.000000
v -2 -2 0 0.258824 1.000000 0.000000
v -3 -2 0 0.258824 1.000000 0.000000
v -3 -2 1 0.258824 1.000000 0.000000
v -2 -2 1 0.258824 1.000000 0.000000
v -1 -2 0 0.258824 1.000000 0.000000
v -1 -2 1 0.258824 1.000000 0.000000
v -2 -1 0 0.258824 1.000000 0.000000
v -1 -1 0 0.258824 1.000000 0.000000
v -1 -1 1 0.258824 1.000000 0.000000
v -2 -1 1 0.258824 1.000000 0.000000
v -3 -1 0 0.258824 1.000000 0.000000
v -3 -1 1 0.258824 1.000000 0.000000
v 0 -1 0 0.258824 1.000000 0.000000
v 0 -1 1 0.258824 1.000000 0.000000
v 3 -3 0 0.258824 1.000000 0.000000
v 4 -3 0 0.258824 1.000000 0.000000
v 4 -3 1 0.258824 1.000000 0.000000
v 3 -3 1 0.258824 1.000000 0.000000
v 4 -2 0 0.258824 1.000000 0.000000
v 3 -2 0 0.258824 1.000000 0.000000
v 3 -2 1 0.258824 1.000000 0.000000
v 4 -2 1 0.258824 1.000000 0.000000
v 2 -2 0 0.258824 1.000000 0.000000
v 2 -2 1 0.258824 1.000000 0.000000
v 2 -1 0 0.258824 1.000000 0.000000
v 3 -1 0 0.258824 1.000000 0.000000
v 3 -1 1 0.258824 1.000000 0.000000
v 2 -1 1 0.258824 1.000000 0.000000
v 1 -1 0 0.258824 1.000000 0.000000
v 1 -1 1 0.258824 1.000000 0.000000
v 4 -1 0 0.258824 1.000000 0.000000
v 4 -1 1 0.258824 1.000000 0.000000
vn 0 -1 0
vn 0 0 -1
vn 0 0 1
vn -1 0 0
vn 1 0 0
vn 0 1 0
f 1//1 2//1 3//1 4//1
f 1//2 5//2 6//2 2//2
f 3//3 7//3 8//3 4//3
f 1//4 4//4 8//4 5//4
f 2//2 6//2 9//2 10//2
f 11//3 12//3 7//3 3//3
f 10//5 9//5 12//5 11//5
f 13//2 14//2 15//2 16//2
f 17//3 18//3 19//3 20//3
f 13//4 20//4 19//4 14//4
f 21//1 5//1 8//1 22//1
f 21//2 23//2 24//2 5//2
f 8//3 25//3 26//3 22//3
f 21//4 22//4 26//4 23//4
f 27//6 24//6 25//6 28//6
f 5//2 24//2 27//2 6//2
f 7//3 28//3 25//3 8//3
f 6//2 27//2 29//2 9//2
f 12//3 30//3 28//3 7//3
f 9//1 14//1 19//1 12//1
f 9//2 29//2 31//2 14//2
f 19//3 32//3 30//3 12//3
f 14//2 31//2 33//2 15//2
f 18//3 34//3 32//3 19//3
f 23//2 35//2 36//2 24//2
f 25//3 37//3 38//3 26//3
f 24//5 36//5 37//5 25//5
f 23//4 26//4 38//4 35//4
f 27//2 39//2 40//2 29//2
f 30//3 41//3 42//3 28//3
f 27//4 28//4 42//4 39//4
f 43//6 40//6 41//6 44//6
f 29//2 40//2 43//2 31//2
f 32//3 44//3 41//3 30//3
f 45//6 43//6 44//6 46//6
f 31//2 43//2 45//2 33//2
f 34//3 46//3 44//3 32//3
f 47//6 48//6 49//6 50//6
f 35//2 48//2 47//2 36//2
f 37//3 50//3 49//3 38//3
f 36//5 47//5 50//5 37//5
f 35//4 38//4 49//4 48//4
f 51//6 52//6 53//6 54//6
f 39//2 52//2 51//2 40//2
f 41//3 54//3 53//3 42//3
f 40//5 51//5 54//5 41//5
f 39//4 42//4 53//4 52//4
f 51//1 55//1 56//1 54//1
f 57//6 58//6 59//6 60//6
f 51//2 58//2 57//2 55//2
f 56//3 60//3 59//3 54//3
f 51//4 54//4 59//4 58//4
f 55//1 61//1 62//1 56//1
f 63//6 57//6 60//6 64//6
f 55//2 57//2 63//2 61//2
f 62//3 64//3 60//3 56//3
f 61//5 63//5 64//5 62//5
f 16//2 15//2 65//2 66//2
f 67//3 68//3 18//3 17//3
f 66//2 65//2 69//2 70//2
f 71//3 72//3 68//3 67//3
f 70//5 69//5 72//5 71//5
f 73//2 74//2 75//2 76//2
f 77//3 78//3 79//3 80//3
f 73//4 80//4 79//4 74//4
f 76//1 81//1 82//1 77//1
f 76//2 75//2 83//2 81//2
f 82//3 84//3 78//3 77//3
f 81//5 83//5 84//5 82//5
f 15//2 33//2 85//2 65//2
f 68//3 86//3 34//3 18//3
f 65//2 85//2 87//2 69//2
f 72//3 88//3 86//3 68//3
f 69//1 74//1 79//1 72//1
f 69//2 87//2 89//2 74//2
f 79//3 90//3 88//3 72//3
f 74//2 89//2 91//2 75//2
f 78//3 92//3 90//3 79//3
f 93//6 91//6 92//6 94//6
f 75//2 91//2 93//2 83//2
f 84//3 94//3 92//3 78//3
f 83//1 95//1 96//1 84//1
f 83//2 93//2 97//2 95//2
f 96//3 98//3 94//3 84//3
f 95//5 97//5 98//5 96//5
f 99//6 45//6 46//6 100//6
f 33//2 45//2 99//2 85//2
f 86//3 100//3 46//3 34//3
f 101//6 99//6 100//6 102//6
f 85//2 99//2 101//2 87//2
f 88//3 102//3 100//3 86//3
f 103//6 101//6 102//6 104//6
f 87//2 101//2 103//2 89//2
f 90//3 104//3 102//3 88//3
f 89//2 103//2 105//2 91//2
f 92//3 106//3 104//3 90//3
f 91//5 105//5 106//5 92//5
f 93//2 107//2 108//2 97//2
f 98//3 109//3 110//3 94//3
f 97//5 108//5 109//5 98//5
f 93//4 94//4 110//4 107//4
f 111//6 112//6 113//6 114//6
f 103//2 112//2 111//2 105//2
f 106//3 114//3 113//3 104//3
f 105//5 111//5 114//5 106//5
f 103//4 104//4 113//4 112//4
f 115//6 116//6 117//6 118//6
f 107//2 116//2 115//2 108//2
f 109//3 118//3 117//3 110//3
f 108//5 115//5 118//5 109//5
f 107//4 110//4 117//4 116//4
f 119//1 120//1 121//1 122//1
f 123//6 124//6 125//6 126//6
f 119//2 124//2 123//2 120//2
f 121//3 126//3 125//3 122//3
f 119//4 122//4 125//4 124//4
f 120//1 112//1 113//1 121//1
f 127//6 123//6 126//6 128//6
f 120//2 123//2 127//2 112//2
f 113//3 128//3 126//3 121//3
f 112//5 127//5 128//5 113//5
f 129//1 130//1 131//1 132//1
f 133//6 134//6 135//6 136//6
f 129//2 134//2 133//2 130//2
f 131//3 136//3 135//3 132//3
f 130//5 133//5 136//5 131//5
f 129//4 132//4 135//4 134//4
f 133//1 137//1 138//1 136//1
f 133//2 139//2 140//2 137//2
f 138//3 141//3 142//3 136//3
f 137//5 140//5 141//5 138//5
f 133//4 136//4 142//4 139//4
f 143//1 139//1 142//1 144//1
f 143//2 2//2 10//2 139//2
f 142//3 11//3 3//3 144//3
f 143//4 144//4 3//4 2//4
f 13//6 10//6 11//6 20//6
f 139//2 10//2 13//2 140//2
f 141//3 20//3 11//3 142//3
f 140//1 145//1 146//1 141//1
f 140//2 13//2 16//2 145//2
f 146//3 17//3 20//3 141//3
f 147//1 148//1 149//1 150//1
f 151//6 152//6 153//6 154//6
f 147//2 152//2 151//2 148//2
f 149//3 154//3 153//3 150//3
f 148//5 151//5 154//5 149//5
f 147//4 150//4 153//4 152//4
f 155//1 152//1 153//1 156//1
f 155//2 157//2 158//2 152//2
f 153//3 159//3 160//3 156//3
f 152//5 158//5 159//5 153//5
f 155//4 156//4 160//4 157//4
f 145//1 161//1 162//1 146//1
f 145//2 16//2 66//2 161//2
f 162//3 67//3 17//3 146//3
f 161//1 157//1 160//1 162//1
f 161//2 66//2 70//2 157//2
f 160//3 71//3 67//3 162//3
f 73//6 70//6 71//6 80//6
f 157//2 70//2 73//2 158//2
f 159//3 80//3 71//3 160//3
f 158//1 163//1 164//1 159//1
f 158//2 73//2 76//2 163//2
f 164//3 77//3 80//3 159//3
f 163//5 76//5 77//5 164//5
