# Goxel 0.10.8
v -2 -5 0 0.258824 1.000000 0.000000
v -1 -5 0 0.258824 1.000000 0.000000
v -1 -5 1 0.258824 1.000000 0.000000
v -2 -5 1 0.258824 1.000000 0.000000
v -1 -4 0 0.258824 1.000000 0.000000
v -2 -4 0 0.258824 1.000000 0.000000
v -2 -4 1 0.258824 1.000000 0.000000
v -1 -4 1 0.258824 1.000000 0.000000
v 0 -5 0 0.258824 1.000000 0.000000
v 0 -5 1 0.258824 1.000000 0.000000
v 0 -4 0 0.258824 1.000000 0.000000
v 0 -4 1 0.258824 1.000000 0.000000
v -5 -4 0 0.258824 1.000000 0.000000
v -4 -4 0 0.258824 1.000000 0.000000
v -4 -4 1 0.258824 1.000000 0.000000
v -5 -4 1 0.258824 1.000000 0.000000
v -5 -3 0 0.258824 1.000000 0.000000
v -4 -3 0 0.258824 1.000000 0.000000
v -4 -3 1 0.258824 1.000000 0.000000
v -5 -3 1 0.258824 1.000000 0.000000
v -3 -4 0 0.258824 1.000000 0.000000
v -3 -4 1 0.258824 1.000000 0.000000
v -3 -3 0 0.258824 1.000000 0.000000
v -2 -3 0 0.258824 1.000000 0.000000
v -2 -3 1 0.258824 1.000000 0.000000
v -3 -3 1 0.258824 1.000000 0.000000
v -5 -2 0 0.258824 1.000000 0.000000
v -4 -2 0 0.258824 1.000000 0.000000
v -4 -2 1 0.258824 1.000000 0.000000
v -5 -2 1 0.258824 1.000000 0.000000
v -3 -2 0 0.258824 1.000000 0.000000
v -2 -2 0 0.258824 1.000000 0.000000
v -2 -2 1 0.258824 1.000000 0.000000
v -3 -2 1 0.258824 1.000000 0.000000
v -1 -3 0 0.258824 1.000000 0.000000
v -1 -3 1 0.258824 1.000000 0.000000
v -1 -2 0 0.258824 1.000000 0.000000
v -1 -2 1 0.258824 1.000000 0.000000
v 0 -3 0 0.258824 1.000000 0.000000
v 0 -3 1 0.258824 1.000000 0.000000
v 0 -2 0 0.258824 1.000000 0.000000
v 0 -2 1 0.258824 1.000000 0.000000
v -4 -1 0 0.258824 1.000000 0.000000
v -5 -1 0 0.258824 1.000000 0.000000
v -5 -1 1 0.258824 1.000000 0.000000
v -4 -1 1 0.258824 1.000000 0.000000
v -3 -1 0 0.258824 1.000000 0.000000
v -3 -1 1 0.258824 1.000000 0.000000
v -2 -1 0 0.258824 1.000000 0.000000
v -2 -1 1 0.258824 1.000000 0.000000
v -1 -1 0 0.258824 1.000000 0.000000
v -1 -1 1 0.258824 1.000000 0.000000
v 0 -1 0 0.258824 1.000000 0.000000
v 0 -1 1 0.258824 1.000000 0.000000
v -3 0 0 0.258824 1.000000 0.000000
v -4 0 0 0.258824 1.000000 0.000000
v -4 0 1 0.258824 1.000000 0.000000
v -3 0 1 0.258824 1.000000 0.000000
v -2 0 0 0.258824 1.000000 0.000000
v -2 0 1 0.258824 1.000000 0.000000
v -1 0 0 0.258824 1.000000 0.000000
v 0 0 0 0.258824 1.000000 0.000000
v 0 0 1 0.258824 1.000000 0.000000
v -1 0 1 0.258824 1.000000 0.000000
v 1 -5 0 0.258824 1.000000 0.000000
v 2 -5 0 0.258824 1.000000 0.000000
v 2 -5 1 0.258824 1.000000 0.000000
v 1 -5 1 0.258824 1.000000 0.000000
v 2 -4 0 0.258824 1.000000 0.000000
v 1 -4 0 0.258824 1.000000 0.000000
v 1 -4 1 0.258824 1.000000 0.000000
v 2 -4 1 0.258824 1.000000 0.000000
v 3 -5 0 0.258824 1.000000 0.000000
v 3 -5 1 0.258824 1.000000 0.000000
v 3 -4 0 0.258824 1.000000 0.000000
v 3 -4 1 0.258824 1.000000 0.000000
v 4 -4 0 0.258824 1.000000 0.000000
v 4 -4 1 0.258824 1.000000 0.000000
v 3 -3 0 0.258824 1.000000 0.000000
v 4 -3 0 0.258824 1.000000 0.000000
v 4 -3 1 0.258824 1.000000 0.000000
v 3 -3 1 0.258824 1.000000 0.000000
v 5 -4 0 0.258824 1.000000 0.000000
v 6 -4 0 0.258824 1.000000 0.000000
v 6 -4 1 0.258824 1.000000 0.000000
v 5 -4 1 0.258824 1.000000 0.000000
v 5 -3 0 0.258824 1.000000 0.000000
v 6 -3 0 0.258824 1.000000 0.000000
v 6 -3 1 0.258824 1.000000 0.000000
v 5 -3 1 0.258824 1.000000 0.000000
v 1 -3 0 0.258824 1.000000 0.000000
v 1 -3 1 0.258824 1.000000 0.000000
v 1 -2 0 0.258824 1.000000 0.000000
v 1 -2 1 0.258824 1.000000 0.000000
v 2 -3 0 0.258824 1.000000 0.000000
v 2 -3 1 0.258824 1.000000 0.000000
v 2 -2 0 0.258824 1.000000 0.000000
v 2 -2 1 0.258824 1.000000 0.000000
v 3 -2 0 0.258824 1.000000 0.000000
v 3 -2 1 0.258824 1.000000 0.000000
v 4 -2 0 0.258824 1.000000 0.000000
v 4 -2 1 0.258824 1.000000 0.000000
v 5 -2 0 0.258824 1.000000 0.000000
v 6 -2 0 0.258824 1.000000 0.000000
v 6 -2 1 0.258824 1.000000 0.000000
v 5 -2 1 0.258824 1.000000 0.000000
v 1 -1 0 0.258824 1.000000 0.000000
v 1 -1 1 0.258824 1.000000 0.000000
v 2 -1 0 0.258824 1.000000 0.000000
v 2 -1 1 0.258824 1.000000 0.000000
v 3 -1 0 0.258824 1.000000 0.000000
v 3 -1 1 0.258824 1.000000 0.000000
v 4 -1 0 0.258824 1.000000 0.000000
v 4 -1 1 0.258824 1.000000 0.000000
v 5 -1 0 0.258824 1.000000 0.000000
v 5 -1 1 0.258824 1.000000 0.000000
v 6 -1 0 0.258824 1.000000 0.000000
v 6 -1 1 0.258824 1.000000 0.000000
v 1 0 0 0.258824 1.000000 0.000000
v 1 0 1 0.258824 1.000000 0.000000
v 2 0 0 0.258824 1.000000 0.000000
v 2 0 1 0.258824 1.000000 0.000000
v 3 0 0 0.258824 1.000000 0.000000
v 4 0 0 0.258824 1.000000 0.000000
v 4 0 1 0.258824 1.000000 0.000000
v 3 0 1 0.258824 1.000000 0.000000
v 5 0 0 0.258824 1.000000 0.000000
v 5 0 1 0.258824 1.000000 0.000000
v -2 1 0 0.258824 1.000000 0.000000
v -3 1 0 0.258824 1.000000 0.000000
v -3 1 1 0.258824 1.000000 0.000000
v -2 1 1 0.258824 1.000000 0.000000
v -1 1 0 0.258824 1.000000 0.000000
v -1 1 1 0.258824 1.000000 0.000000
v 0 1 0 0.258824 1.000000 0.000000
v 0 1 1 0.258824 1.000000 0.000000
v -1 2 0 0.258824 1.000000 0.000000
v -2 2 0 0.258824 1.000000 0.000000
v -2 2 1 0.258824 1.000000 0.000000
v -1 2 1 0.258824 1.000000 0.000000
v -3 2 0 0.258824 1.000000 0.000000
v -3 2 1 0.258824 1.000000 0.000000
v -2 3 0 0.258824 1.000000 0.000000
v -3 3 0 0.258824 1.000000 0.000000
v -3 3 1 0.258824 1.000000 0.000000
v -2 3 1 0.258824 1.000000 0.000000
v 1 1 0 0.258824 1.000000 0.000000
v 1 1 1 0.258824 1.000000 0.000000
v 2 1 0 0.258824 1.000000 0.000000
v 2 1 1 0.258824 1.000000 0.000000
v 3 1 0 0.258824 1.000000 0.000000
v 3 1 1 0.258824 1.000000 0.000000
v 4 1 0 0.258824 1.000000 0.000000
v 4 1 1 0.258824 1.000000 0.000000
v 3 2 0 0.258824 1.000000 0.000000
v 2 2 0 0.258824 1.000000 0.000000
v 2 2 1 0.258824 1.000000 0.000000
v 3 2 1 0.258824 1.000000 0.000000
v 4 2 0 0.258824 1.000000 0.000000
v 4 2 1 0.258824 1.000000 0.000000
v 4 3 0 0.258824 1.000000 0.000000
v 3 3 0 0.258824 1.000000 0.000000
v 3 3 1 0.258824 1.000000 0.000000
v 4 3 1 0.258824 1.000000 0.000000
vn 0 -1 0
vn 0 1 0
vn 0 0 -1
vn 0 0 1
vn -1 0 0
vn 1 0 0
f 1//1 2//1 3//1 4//1
f 5//2 6//2 7//2 8//2
f 1//3 6//3 5//3 2//3
f 3//4 8//4 7//4 4//4
f 1//5 4//5 7//5 6//5
f 2//1 9//1 10//1 3//1
f 11//2 5//2 8//2 12//2
f 2//3 5//3 11//3 9//3
f 10//4 12//4 8//4 3//4
f 9//6 11//6 12//6 10//6
f 13//1 14//1 15//1 16//1
f 13//3 17//3 18//3 14//3
f 15//4 19//4 20//4 16//4
f 14//6 18//6 19//6 15//6
f 13//5 16//5 20//5 17//5
f 21//1 6//1 7//1 22//1
f 21//3 23//3 24//3 6//3
f 7//4 25//4 26//4 22//4
f 6//6 24//6 25//6 7//6
f 21//5 22//5 26//5 23//5
f 17//3 27//3 28//3 18//3
f 19//4 29//4 30//4 20//4
f 18//6 28//6 29//6 19//6
f 17//5 20//5 30//5 27//5
f 23//3 31//3 32//3 24//3
f 25//4 33//4 34//4 26//4
f 23//5 26//5 34//5 31//5
f 24//1 35//1 36//1 25//1
f 24//3 32//3 37//3 35//3
f 36//4 38//4 33//4 25//4
f 35//1 39//1 40//1 36//1
f 35//3 37//3 41//3 39//3
f 40//4 42//4 38//4 36//4
f 43//2 44//2 45//2 46//2
f 27//3 44//3 43//3 28//3
f 29//4 46//4 45//4 30//4
f 27//5 30//5 45//5 44//5
f 28//1 31//1 34//1 29//1
f 28//3 43//3 47//3 31//3
f 34//4 48//4 46//4 29//4
f 31//3 47//3 49//3 32//3
f 33//4 50//4 48//4 34//4
f 51//2 49//2 50//2 52//2
f 32//3 49//3 51//3 37//3
f 38//4 52//4 50//4 33//4
f 37//3 51//3 53//3 41//3
f 42//4 54//4 52//4 38//4
f 55//2 56//2 57//2 58//2
f 43//3 56//3 55//3 47//3
f 48//4 58//4 57//4 46//4
f 43//5 46//5 57//5 56//5
f 47//3 55//3 59//3 49//3
f 50//4 60//4 58//4 48//4
f 49//6 59//6 60//6 50//6
f 51//3 61//3 62//3 53//3
f 54//4 63//4 64//4 52//4
f 51//5 52//5 64//5 61//5
f 65//1 66//1 67//1 68//1
f 69//2 70//2 71//2 72//2
f 65//3 70//3 69//3 66//3
f 67//4 72//4 71//4 68//4
f 65//5 68//5 71//5 70//5
f 66//1 73//1 74//1 67//1
f 75//2 69//2 72//2 76//2
f 66//3 69//3 75//3 73//3
f 74//4 76//4 72//4 67//4
f 73//6 75//6 76//6 74//6
f 75//1 77//1 78//1 76//1
f 75//3 79//3 80//3 77//3
f 78//4 81//4 82//4 76//4
f 77//6 80//6 81//6 78//6
f 75//5 76//5 82//5 79//5
f 83//1 84//1 85//1 86//1
f 83//3 87//3 88//3 84//3
f 85//4 89//4 90//4 86//4
f 84//6 88//6 89//6 85//6
f 83//5 86//5 90//5 87//5
f 39//1 91//1 92//1 40//1
f 39//3 41//3 93//3 91//3
f 92//4 94//4 42//4 40//4
f 91//1 95//1 96//1 92//1
f 91//3 93//3 97//3 95//3
f 96//4 98//4 94//4 92//4
f 95//1 79//1 82//1 96//1
f 95//3 97//3 99//3 79//3
f 82//4 100//4 98//4 96//4
f 79//3 99//3 101//3 80//3
f 81//4 102//4 100//4 82//4
f 80//6 101//6 102//6 81//6
f 87//3 103//3 104//3 88//3
f 89//4 105//4 106//4 90//4
f 88//6 104//6 105//6 89//6
f 87//5 90//5 106//5 103//5
f 41//3 53//3 107//3 93//3
f 94//4 108//4 54//4 42//4
f 93//3 107//3 109//3 97//3
f 98//4 110//4 108//4 94//4
f 111//2 109//2 110//2 112//2
f 97//3 109//3 111//3 99//3
f 100//4 112//4 110//4 98//4
f 99//3 111//3 113//3 101//3
f 102//4 114//4 112//4 100//4
f 101//1 103//1 106//1 102//1
f 101//3 113//3 115//3 103//3
f 106//4 116//4 114//4 102//4
f 117//2 115//2 116//2 118//2
f 103//3 115//3 117//3 104//3
f 105//4 118//4 116//4 106//4
f 104//6 117//6 118//6 105//6
f 53//3 62//3 119//3 107//3
f 108//4 120//4 63//4 54//4
f 107//3 119//3 121//3 109//3
f 110//4 122//4 120//4 108//4
f 109//6 121//6 122//6 110//6
f 111//3 123//3 124//3 113//3
f 114//4 125//4 126//4 112//4
f 111//5 112//5 126//5 123//5
f 127//2 124//2 125//2 128//2
f 113//3 124//3 127//3 115//3
f 116//4 128//4 125//4 114//4
f 115//6 127//6 128//6 116//6
f 129//2 130//2 131//2 132//2
f 55//3 130//3 129//3 59//3
f 60//4 132//4 131//4 58//4
f 55//5 58//5 131//5 130//5
f 59//1 61//1 64//1 60//1
f 59//3 129//3 133//3 61//3
f 64//4 134//4 132//4 60//4
f 135//2 133//2 134//2 136//2
f 61//3 133//3 135//3 62//3
f 63//4 136//4 134//4 64//4
f 137//2 138//2 139//2 140//2
f 129//3 138//3 137//3 133//3
f 134//4 140//4 139//4 132//4
f 133//6 137//6 140//6 134//6
f 129//5 132//5 139//5 138//5
f 141//1 138//1 139//1 142//1
f 143//2 144//2 145//2 146//2
f 141//3 144//3 143//3 138//3
f 139//4 146//4 145//4 142//4
f 138//6 143//6 146//6 139//6
f 141//5 142//5 145//5 144//5
f 147//2 135//2 136//2 148//2
f 62//3 135//3 147//3 119//3
f 120//4 148//4 136//4 63//4
f 149//2 147//2 148//2 150//2
f 119//3 147//3 149//3 121//3
f 122//4 150//4 148//4 120//4
f 121//1 123//1 126//1 122//1
f 121//3 149//3 151//3 123//3
f 126//4 152//4 150//4 122//4
f 153//2 151//2 152//2 154//2
f 123//3 151//3 153//3 124//3
f 125//4 154//4 152//4 126//4
f 124//6 153//6 154//6 125//6
f 155//2 156//2 157//2 158//2
f 149//3 156//3 155//3 151//3
f 152//4 158//4 157//4 150//4
f 151//6 155//6 158//6 152//6
f 149//5 150//5 157//5 156//5
f 155//1 159//1 160//1 158//1
f 161//2 162//2 163//2 164//2
f 155//3 162//3 161//3 159//3
f 160//4 164//4 163//4 158//4
f 159//6 161//6 164//6 160//6
f 155//5 158//5 163//5 162//5
