# Goxel 0.10.8
v -5 -3 0 1.000000 0.996078 0.996078
v -4 -3 0 1.000000 0.996078 0.996078
v -4 -3 1 1.000000 0.996078 0.996078
v -5 -3 1 1.000000 0.996078 0.996078
v -5 -2 0 1.000000 0.996078 0.996078
v -4 -2 0 1.000000 0.996078 0.996078
v -4 -2 1 1.000000 0.996078 0.996078
v -5 -2 1 1.000000 0.996078 0.996078
v -3 -3 0 1.000000 0.996078 0.996078
v -3 -3 1 1.000000 0.996078 0.996078
v -3 -2 0 1.000000 0.996078 0.996078
v -3 -2 1 1.000000 0.996078 0.996078
v -2 -3 0 1.000000 0.996078 0.996078
v -2 -3 1 1.000000 0.996078 0.996078
v -2 -2 0 1.000000 0.996078 0.996078
v -2 -2 1 1.000000 0.996078 0.996078
v -1 -3 0 1.000000 0.996078 0.996078
v -1 -3 1 1.000000 0.996078 0.996078
v -1 -2 0 1.000000 0.996078 0.996078
v -1 -2 1 1.000000 0.996078 0.996078
v 0 -3 0 1.000000 0.996078 0.996078
v 0 -3 1 1.000000 0.996078 0.996078
v 0 -2 0 1.000000 0.996078 0.996078
v 0 -2 1 1.000000 0.996078 0.996078
v -5 -1 0 1.000000 0.996078 0.996078
v -4 -1 0 1.000000 0.996078 0.996078
v -4 -1 1 1.000000 0.996078 0.996078
v -5 -1 1 1.000000 0.996078 0.996078
v -3 -1 0 1.000000 0.996078 0.996078
v -3 -1 1 1.000000 0.996078 0.996078
v -2 -1 0 1.000000 0.996078 0.996078
v -2 -1 1 1.000000 0.996078 0.996078
v -1 -1 0 1.000000 0.996078 0.996078
v -1 -1 1 1.000000 0.996078 0.996078
v 0 -1 0 1.000000 0.996078 0.996078
v 0 -1 1 1.000000 0.996078 0.996078
v -4 0 0 1.000000 0.996078 0.996078
v -5 0 0 1.000000 0.996078 0.996078
v -5 0 1 1.000000 0.996078 0.996078
v -4 0 1 1.000000 0.996078 0.996078
v -3 0 0 1.000000 0.996078 0.996078
v -3 0 1 1.000000 0.996078 0.996078
v -2 0 0 1.000000 0.996078 0.996078
v -2 0 1 1.000000 0.996078 0.996078
v -1 0 0 1.000000 0.996078 0.996078
v -1 0 1 1.000000 0.996078 0.996078
v 0 0 0 1.000000 0.996078 0.996078
v 0 0 1 1.000000 0.996078 0.996078
v 1 -3 0 1.000000 0.996078 0.996078
v 1 -3 1 1.000000 0.996078 0.996078
v 1 -2 0 1.000000 0.996078 0.996078
v 1 -2 1 1.000000 0.996078 0.996078
v 2 -3 0 1.000000 0.996078 0.996078
v 2 -3 1 1.000000 0.996078 0.996078
v 2 -2 0 1.000000 0.996078 0.996078
v 2 -2 1 1.000000 0.996078 0.996078
v 3 -3 0 1.000000 0.996078 0.996078
v 3 -3 1 1.000000 0.996078 0.996078
v 3 -2 0 1.000000 0.996078 0.996078
v 3 -2 1 1.000000 0.996078 0.996078
v 4 -3 0 1.000000 0.996078 0.996078
v 4 -3 1 1.000000 0.996078 0.996078
v 4 -2 0 1.000000 0.996078 0.996078
v 4 -2 1 1.000000 0.996078 0.996078
v 1 -1 0 1.000000 0.996078 0.996078
v 1 -1 1 1.000000 0.996078 0.996078
v 2 -1 0 1.000000 0.996078 0.996078
v 2 -1 1 1.000000 0.996078 0.996078
v 3 -1 0 1.000000 0.996078 0.996078
v 3 -1 1 1.000000 0.996078 0.996078
v 4 -1 0 1.000000 0.996078 0.996078
v 4 -1 1 1.000000 0.996078 0.996078
v 1 0 0 1.000000 0.996078 0.996078
v 1 0 1 1.000000 0.996078 0.996078
v 2 0 0 1.000000 0.996078 0.996078
v 2 0 1 1.000000 0.996078 0.996078
v 3 0 0 1.000000 0.996078 0.996078
v 3 0 1 1.000000 0.996078 0.996078
v 4 0 0 1.000000 0.996078 0.996078
v 4 0 1 1.000000 0.996078 0.996078
v -3 1 0 1.000000 0.996078 0.996078
v -4 1 0 1.000000 0.996078 0.996078
v -4 1 1 1.000000 0.996078 0.996078
v -3 1 1 1.000000 0.996078 0.996078
v -2 1 0 1.000000 0.996078 0.996078
v -2 1 1 1.000000 0.996078 0.996078
v -1 1 0 1.000000 0.996078 0.996078
v -1 1 1 1.000000 0.996078 0.996078
v 0 1 0 1.000000 0.996078 0.996078
v 0 1 1 1.000000 0.996078 0.996078
v -2 2 0 1.000000 0.996078 0.996078
v -1 2 0 1.000000 0.996078 0.996078
v -1 2 1 1.000000 0.996078 0.996078
v -2 2 1 1.000000 0.996078 0.996078
v 0 2 0 1.000000 0.996078 0.996078
v 0 2 1 1.000000 0.996078 0.996078
v -1 3 0 1.000000 0.996078 0.996078
v -2 3 0 1.000000 0.996078 0.996078
v -2 3 1 1.000000 0.996078 0.996078
v -1 3 1 1.000000 0.996078 0.996078
v 0 3 0 1.000000 0.996078 0.996078
v 0 3 1 1.000000 0.996078 0.996078
v 0 4 0 1.000000 0.996078 0.996078
v -1 4 0 1.000000 0.996078 0.996078
v -1 4 1 1.000000 0.996078 0.996078
v 0 4 1 1.000000 0.996078 0.996078
v 1 1 0 1.000000 0.996078 0.996078
v 1 1 1 1.000000 0.996078 0.996078
v 2 1 0 1.000000 0.996078 0.996078
v 2 1 1 1.000000 0.996078 0.996078
v 3 1 0 1.000000 0.996078 0.996078
v 3 1 1 1.000000 0.996078 0.996078
v 1 2 0 1.000000 0.996078 0.996078
v 1 2 1 1.000000 0.996078 0.996078
v 1 3 0 1.000000 0.996078 0.996078
v 1 3 1 1.000000 0.996078 0.996078
vn 0 -1 0
vn 0 0 -1
vn 0 0 1
vn -1 0 0
vn 0 1 0
vn 1 0 0
f 1//1 2//1 3//1 4//1
f 1//2 5//2 6//2 2//2
f 3//3 7//3 8//3 4//3
f 1//4 4//4 8//4 5//4
f 2//1 9//1 10//1 3//1
f 2//2 6//2 11//2 9//2
f 10//3 12//3 7//3 3//3
f 9//1 13//1 14//1 10//1
f 9//2 11//2 15//2 13//2
f 14//3 16//3 12//3 10//3
f 13//1 17//1 18//1 14//1
f 13//2 15//2 19//2 17//2
f 18//3 20//3 16//3 14//3
f 17//1 21//1 22//1 18//1
f 17//2 19//2 23//2 21//2
f 22//3 24//3 20//3 18//3
f 5//2 25//2 26//2 6//2
f 7//3 27//3 28//3 8//3
f 5//4 8//4 28//4 25//4
f 6//2 26//2 29//2 11//2
f 12//3 30//3 27//3 7//3
f 11//2 29//2 31//2 15//2
f 16//3 32//3 30//3 12//3
f 15//2 31//2 33//2 19//2
f 20//3 34//3 32//3 16//3
f 19//2 33//2 35//2 23//2
f 24//3 36//3 34//3 20//3
f 37//5 38//5 39//5 40//5
f 25//2 38//2 37//2 26//2
f 27//3 40//3 39//3 28//3
f 25//4 28//4 39//4 38//4
f 26//2 37//2 41//2 29//2
f 30//3 42//3 40//3 27//3
f 29//2 41//2 43//2 31//2
f 32//3 44//3 42//3 30//3
f 31//2 43//2 45//2 33//2
f 34//3 46//3 44//3 32//3
f 33//2 45//2 47//2 35//2
f 36//3 48//3 46//3 34//3
f 21//1 49//1 50//1 22//1
f 21//2 23//2 51//2 49//2
f 50//3 52//3 24//3 22//3
f 49//1 53//1 54//1 50//1
f 49//2 51//2 55//2 53//2
f 54//3 56//3 52//3 50//3
f 53//1 57//1 58//1 54//1
f 53//2 55//2 59//2 57//2
f 58//3 60//3 56//3 54//3
f 57//1 61//1 62//1 58//1
f 57//2 59//2 63//2 61//2
f 62//3 64//3 60//3 58//3
f 61//6 63//6 64//6 62//6
f 23//2 35//2 65//2 51//2
f 52//3 66//3 36//3 24//3
f 51//2 65//2 67//2 55//2
f 56//3 68//3 66//3 52//3
f 55//2 67//2 69//2 59//2
f 60//3 70//3 68//3 56//3
f 59//2 69//2 71//2 63//2
f 64//3 72//3 70//3 60//3
f 63//6 71//6 72//6 64//6
f 35//2 47//2 73//2 65//2
f 66//3 74//3 48//3 36//3
f 65//2 73//2 75//2 67//2
f 68//3 76//3 74//3 66//3
f 67//2 75//2 77//2 69//2
f 70//3 78//3 76//3 68//3
f 79//5 77//5 78//5 80//5
f 69//2 77//2 79//2 71//2
f 72//3 80//3 78//3 70//3
f 71//6 79//6 80//6 72//6
f 81//5 82//5 83//5 84//5
f 37//2 82//2 81//2 41//2
f 42//3 84//3 83//3 40//3
f 37//4 40//4 83//4 82//4
f 85//5 81//5 84//5 86//5
f 41//2 81//2 85//2 43//2
f 44//3 86//3 84//3 42//3
f 43//2 85//2 87//2 45//2
f 46//3 88//3 86//3 44//3
f 45//2 87//2 89//2 47//2
f 48//3 90//3 88//3 46//3
f 85//2 91//2 92//2 87//2
f 88//3 93//3 94//3 86//3
f 85//4 86//4 94//4 91//4
f 87//2 92//2 95//2 89//2
f 90//3 96//3 93//3 88//3
f 97//5 98//5 99//5 100//5
f 91//2 98//2 97//2 92//2
f 93//3 100//3 99//3 94//3
f 91//4 94//4 99//4 98//4
f 92//2 97//2 101//2 95//2
f 96//3 102//3 100//3 93//3
f 103//5 104//5 105//5 106//5
f 97//2 104//2 103//2 101//2
f 102//3 106//3 105//3 100//3
f 101//6 103//6 106//6 102//6
f 97//4 100//4 105//4 104//4
f 47//2 89//2 107//2 73//2
f 74//3 108//3 90//3 48//3
f 109//5 107//5 108//5 110//5
f 73//2 107//2 109//2 75//2
f 76//3 110//3 108//3 74//3
f 111//5 109//5 110//5 112//5
f 75//2 109//2 111//2 77//2
f 78//3 112//3 110//3 76//3
f 77//6 111//6 112//6 78//6
f 89//2 95//2 113//2 107//2
f 108//3 114//3 96//3 90//3
f 107//6 113//6 114//6 108//6
f 115//5 101//5 102//5 116//5
f 95//2 101//2 115//2 113//2
f 114//3 116//3 102//3 96//3
f 113//6 115//6 116//6 114//6
